With: Sean Connery, Christian Slater and F. Murray Abraham

Na een mysterieuze dood in een klooster, denken de monniken dat dit het begin van de nieuwe apocalypse is. Het is ook uiterst slecht getimed aangezien ze binnenkort bezoek krijgen van belangrijke geestelijke leiders. Ze vragen daarom hulp van de monnik William of Baskerville, ze willen dat hij uitvindt wat er hier gaande is. Samen met zijn leerling gaat hij op onderzoek uit, maar hij moet ook vechten tegen de klok aangezien ze belangrijk bezoek verwachten.

1327: after a mysterious death in a Benedictine Abbey, the monks are convinced that the apocalypse is coming. With the Abbey to play host to a council on the Franciscan's Order's belief that the Church should rid itself of wealth, William of Baskerville, a respected Franciscan monk, is asked to assist in determining the cause of the untimely death. Alas, more deaths occur as the investigation draws closer to uncovering the secret the Abbey wants hidden, and there is finally no stopping the Holy Inquisition from taking an active hand in the process. William and his young novice must race against time to prove the innocence of the unjustly accused and avoid the wrath of Holy Inquisitor Bernardo Gui. 

General:

Complete name                    : The Name Of The Rose\The Name Of The Rose.avi
Format                           : AVI
Format/Info                      : Audio Video Interleave
File size                        : 1.76 GiB
Duration                         : 2h 6mn
Overall bit rate                 : 2 001 Kbps

Video:

Format                           : MPEG-4 Visual
Format profile                   : Simple@L3
Format settings, BVOP            : No
Format settings, QPel            : No
Format settings, GMC             : No warppoints
Format settings, Matrix          : Default (H.263)
Codec ID                         : XVID
Codec ID/Hint                    : XviD
Duration                         : 2h 6mn
Bit rate                         : 1 607 Kbps
Width                            : 652 pixels
Height                           : 352 pixels
Display aspect ratio             : 1.852
Frame rate                       : 25.000 fps
Color space                      : YUV
Chroma subsampling               : 4:2:0
Bit depth                        : 8 bits
Scan type                        : Progressive
Bits/(Pixel*Frame)               : 0.280
Stream size                      : 1.41 GiB (80%)
Writing library                  : XviD 1.1.2 (UTC 2006-11-01)

Audio:

Format                           : AC-3
Format/Info                      : Audio Coding 3
Mode extension                   : CM (complete main)
Codec ID                         : 2000
Duration                         : 2h 6mn
Bit rate mode                    : Constant
Bit rate                         : 384 Kbps
Channel(s)                       : 6 channels
Channel positions                : Front: L C R, Side: L R, LFE
Sampling rate                    : 48.0 KHz
Bit depth                        : 16 bits
Stream size                      : 346 MiB (19%)
Alignment                        : Aligned on interleaves
Interleave, duration             : 32 ms (0.80 video frame)
Interleave, preload duration     : 64 ms


